<mxfile host="app.diagrams.net" modified="2021-03-03T13:09:04.723Z" agent="5.0 (Macintosh; Intel Mac OS X 10_15_7) AppleWebKit/537.36 (KHTML, like Gecko) Chrome/88.0.4324.192 Safari/537.36" etag="UsPxrZFdCyUP7bNgbq6L" version="14.4.3" type="github">
  <diagram id="mdJYrIpHJk4FUQfbCPtG" name="Page-1">
    <mxGraphModel dx="1186" dy="706" grid="1" gridSize="10" guides="1" tooltips="1" connect="1" arrows="1" fold="1" page="1" pageScale="1" pageWidth="827" pageHeight="1169" math="0" shadow="0">
      <root>
        <mxCell id="0" />
        <mxCell id="1" parent="0" />
        <mxCell id="dOzwPy3t-3OWGlCS2lwr-1" value="Main menu" style="shape=umlFrame;whiteSpace=wrap;html=1;" vertex="1" parent="1">
          <mxGeometry x="120" y="30" width="640" height="540" as="geometry" />
        </mxCell>
        <mxCell id="dOzwPy3t-3OWGlCS2lwr-2" value="" style="ellipse;whiteSpace=wrap;html=1;aspect=fixed;fillColor=#000000;" vertex="1" parent="1">
          <mxGeometry x="414" y="90" width="20" height="20" as="geometry" />
        </mxCell>
        <mxCell id="dOzwPy3t-3OWGlCS2lwr-3" value="Initial node" style="text;html=1;strokeColor=none;fillColor=none;align=center;verticalAlign=middle;whiteSpace=wrap;rounded=0;" vertex="1" parent="1">
          <mxGeometry x="404" y="60" width="40" height="20" as="geometry" />
        </mxCell>
        <mxCell id="dOzwPy3t-3OWGlCS2lwr-4" value="[Start&amp;nbsp;game]" style="endArrow=classic;html=1;" edge="1" parent="1" source="dOzwPy3t-3OWGlCS2lwr-20" target="dOzwPy3t-3OWGlCS2lwr-6">
          <mxGeometry width="50" height="50" relative="1" as="geometry">
            <mxPoint x="394" y="410" as="sourcePoint" />
            <mxPoint x="341.82608695652175" y="245.86956521739125" as="targetPoint" />
          </mxGeometry>
        </mxCell>
        <mxCell id="dOzwPy3t-3OWGlCS2lwr-5" value="" style="rhombus;whiteSpace=wrap;html=1;" vertex="1" parent="1">
          <mxGeometry x="404" y="320" width="40" height="30" as="geometry" />
        </mxCell>
        <mxCell id="dOzwPy3t-3OWGlCS2lwr-6" value="Play" style="rounded=0;whiteSpace=wrap;html=1;" vertex="1" parent="1">
          <mxGeometry x="384" y="240" width="80" height="40" as="geometry" />
        </mxCell>
        <mxCell id="dOzwPy3t-3OWGlCS2lwr-7" value="Quit" style="rounded=0;whiteSpace=wrap;html=1;" vertex="1" parent="1">
          <mxGeometry x="200" y="140" width="80" height="40" as="geometry" />
        </mxCell>
        <mxCell id="dOzwPy3t-3OWGlCS2lwr-8" value="[Change settings]" style="endArrow=classic;html=1;" edge="1" parent="1" source="dOzwPy3t-3OWGlCS2lwr-20" target="dOzwPy3t-3OWGlCS2lwr-36">
          <mxGeometry width="50" height="50" relative="1" as="geometry">
            <mxPoint x="394" y="410" as="sourcePoint" />
            <mxPoint x="560" y="160" as="targetPoint" />
          </mxGeometry>
        </mxCell>
        <mxCell id="dOzwPy3t-3OWGlCS2lwr-9" value="[End program]" style="endArrow=classic;html=1;" edge="1" parent="1" source="dOzwPy3t-3OWGlCS2lwr-20" target="dOzwPy3t-3OWGlCS2lwr-7">
          <mxGeometry width="50" height="50" relative="1" as="geometry">
            <mxPoint x="394" y="410" as="sourcePoint" />
            <mxPoint x="444" y="360" as="targetPoint" />
          </mxGeometry>
        </mxCell>
        <mxCell id="dOzwPy3t-3OWGlCS2lwr-10" value="" style="endArrow=classic;html=1;" edge="1" parent="1" source="dOzwPy3t-3OWGlCS2lwr-6" target="dOzwPy3t-3OWGlCS2lwr-5">
          <mxGeometry width="50" height="50" relative="1" as="geometry">
            <mxPoint x="314" y="410" as="sourcePoint" />
            <mxPoint x="204" y="360" as="targetPoint" />
          </mxGeometry>
        </mxCell>
        <mxCell id="dOzwPy3t-3OWGlCS2lwr-11" value="[New game]" style="endArrow=classic;html=1;" edge="1" parent="1" source="dOzwPy3t-3OWGlCS2lwr-5" target="dOzwPy3t-3OWGlCS2lwr-14">
          <mxGeometry width="50" height="50" relative="1" as="geometry">
            <mxPoint x="314" y="410" as="sourcePoint" />
            <mxPoint x="284" y="338" as="targetPoint" />
          </mxGeometry>
        </mxCell>
        <mxCell id="dOzwPy3t-3OWGlCS2lwr-12" value="[Load game]" style="endArrow=classic;html=1;" edge="1" parent="1" source="dOzwPy3t-3OWGlCS2lwr-5" target="dOzwPy3t-3OWGlCS2lwr-13">
          <mxGeometry width="50" height="50" relative="1" as="geometry">
            <mxPoint x="314" y="410" as="sourcePoint" />
            <mxPoint x="134" y="350" as="targetPoint" />
          </mxGeometry>
        </mxCell>
        <mxCell id="dOzwPy3t-3OWGlCS2lwr-13" value="Load game" style="rounded=0;whiteSpace=wrap;html=1;" vertex="1" parent="1">
          <mxGeometry x="244" y="400" width="80" height="40" as="geometry" />
        </mxCell>
        <mxCell id="dOzwPy3t-3OWGlCS2lwr-14" value="New game" style="rounded=0;whiteSpace=wrap;html=1;" vertex="1" parent="1">
          <mxGeometry x="524" y="400" width="80" height="40" as="geometry" />
        </mxCell>
        <mxCell id="dOzwPy3t-3OWGlCS2lwr-15" value="" style="group" vertex="1" connectable="0" parent="1">
          <mxGeometry x="230" y="230" width="20" height="20" as="geometry" />
        </mxCell>
        <mxCell id="dOzwPy3t-3OWGlCS2lwr-16" value="" style="ellipse;whiteSpace=wrap;html=1;aspect=fixed;shadow=0;" vertex="1" parent="dOzwPy3t-3OWGlCS2lwr-15">
          <mxGeometry width="20" height="20" as="geometry" />
        </mxCell>
        <mxCell id="dOzwPy3t-3OWGlCS2lwr-17" value="" style="ellipse;whiteSpace=wrap;html=1;aspect=fixed;fillColor=#000000;shadow=0;" vertex="1" parent="dOzwPy3t-3OWGlCS2lwr-15">
          <mxGeometry x="2.5" y="2.5" width="15" height="15" as="geometry" />
        </mxCell>
        <mxCell id="dOzwPy3t-3OWGlCS2lwr-18" value="" style="endArrow=classic;html=1;entryX=0.5;entryY=0;entryDx=0;entryDy=0;" edge="1" parent="1" source="dOzwPy3t-3OWGlCS2lwr-7" target="dOzwPy3t-3OWGlCS2lwr-16">
          <mxGeometry width="50" height="50" relative="1" as="geometry">
            <mxPoint x="334" y="380" as="sourcePoint" />
            <mxPoint x="434" y="320" as="targetPoint" />
          </mxGeometry>
        </mxCell>
        <mxCell id="dOzwPy3t-3OWGlCS2lwr-19" value="Final node" style="text;html=1;strokeColor=none;fillColor=none;align=center;verticalAlign=middle;whiteSpace=wrap;rounded=0;shadow=0;" vertex="1" parent="1">
          <mxGeometry x="220" y="255" width="40" height="20" as="geometry" />
        </mxCell>
        <mxCell id="dOzwPy3t-3OWGlCS2lwr-20" value="" style="rhombus;whiteSpace=wrap;html=1;" vertex="1" parent="1">
          <mxGeometry x="404" y="145" width="40" height="30" as="geometry" />
        </mxCell>
        <mxCell id="dOzwPy3t-3OWGlCS2lwr-21" value="" style="endArrow=classic;html=1;" edge="1" parent="1" source="dOzwPy3t-3OWGlCS2lwr-2" target="dOzwPy3t-3OWGlCS2lwr-20">
          <mxGeometry width="50" height="50" relative="1" as="geometry">
            <mxPoint x="444" y="290" as="sourcePoint" />
            <mxPoint x="494" y="240" as="targetPoint" />
          </mxGeometry>
        </mxCell>
        <mxCell id="dOzwPy3t-3OWGlCS2lwr-22" value="" style="rhombus;whiteSpace=wrap;html=1;" vertex="1" parent="1">
          <mxGeometry x="690" y="145" width="40" height="30" as="geometry" />
        </mxCell>
        <mxCell id="dOzwPy3t-3OWGlCS2lwr-23" value="" style="endArrow=classic;html=1;" edge="1" parent="1" source="dOzwPy3t-3OWGlCS2lwr-36" target="dOzwPy3t-3OWGlCS2lwr-22">
          <mxGeometry width="50" height="50" relative="1" as="geometry">
            <mxPoint x="640" y="160" as="sourcePoint" />
            <mxPoint x="710" y="360" as="targetPoint" />
          </mxGeometry>
        </mxCell>
        <mxCell id="dOzwPy3t-3OWGlCS2lwr-24" value="[Apply changes]" style="endArrow=classic;html=1;" edge="1" parent="1" source="dOzwPy3t-3OWGlCS2lwr-22" target="dOzwPy3t-3OWGlCS2lwr-27">
          <mxGeometry width="50" height="50" relative="1" as="geometry">
            <mxPoint x="820" y="410" as="sourcePoint" />
            <mxPoint x="790" y="338" as="targetPoint" />
          </mxGeometry>
        </mxCell>
        <mxCell id="dOzwPy3t-3OWGlCS2lwr-25" value="[Discard changes]" style="endArrow=classic;html=1;" edge="1" parent="1" source="dOzwPy3t-3OWGlCS2lwr-22" target="dOzwPy3t-3OWGlCS2lwr-26">
          <mxGeometry width="50" height="50" relative="1" as="geometry">
            <mxPoint x="820" y="410" as="sourcePoint" />
            <mxPoint x="640" y="350" as="targetPoint" />
          </mxGeometry>
        </mxCell>
        <mxCell id="dOzwPy3t-3OWGlCS2lwr-26" value="Cancel" style="rounded=0;whiteSpace=wrap;html=1;" vertex="1" parent="1">
          <mxGeometry x="670" y="240" width="80" height="40" as="geometry" />
        </mxCell>
        <mxCell id="dOzwPy3t-3OWGlCS2lwr-27" value="Apply" style="rounded=0;whiteSpace=wrap;html=1;" vertex="1" parent="1">
          <mxGeometry x="670" y="40" width="80" height="40" as="geometry" />
        </mxCell>
        <mxCell id="dOzwPy3t-3OWGlCS2lwr-28" value="" style="endArrow=classic;html=1;" edge="1" parent="1" source="dOzwPy3t-3OWGlCS2lwr-26" target="dOzwPy3t-3OWGlCS2lwr-20">
          <mxGeometry width="50" height="50" relative="1" as="geometry">
            <mxPoint x="404" y="270" as="sourcePoint" />
            <mxPoint x="454" y="220" as="targetPoint" />
          </mxGeometry>
        </mxCell>
        <mxCell id="dOzwPy3t-3OWGlCS2lwr-29" value="" style="endArrow=classic;html=1;" edge="1" parent="1" source="dOzwPy3t-3OWGlCS2lwr-27" target="dOzwPy3t-3OWGlCS2lwr-20">
          <mxGeometry width="50" height="50" relative="1" as="geometry">
            <mxPoint x="404" y="270" as="sourcePoint" />
            <mxPoint x="454" y="220" as="targetPoint" />
          </mxGeometry>
        </mxCell>
        <mxCell id="dOzwPy3t-3OWGlCS2lwr-30" value="" style="ellipse;whiteSpace=wrap;html=1;aspect=fixed;shadow=0;" vertex="1" parent="1">
          <mxGeometry x="274" y="505" width="20" height="20" as="geometry" />
        </mxCell>
        <mxCell id="dOzwPy3t-3OWGlCS2lwr-31" value="" style="endArrow=classic;html=1;" edge="1" parent="1" source="dOzwPy3t-3OWGlCS2lwr-13" target="dOzwPy3t-3OWGlCS2lwr-30">
          <mxGeometry width="50" height="50" relative="1" as="geometry">
            <mxPoint x="430" y="320" as="sourcePoint" />
            <mxPoint x="480" y="270" as="targetPoint" />
          </mxGeometry>
        </mxCell>
        <mxCell id="dOzwPy3t-3OWGlCS2lwr-32" value="" style="endArrow=classic;html=1;" edge="1" parent="1" source="dOzwPy3t-3OWGlCS2lwr-14" target="dOzwPy3t-3OWGlCS2lwr-35">
          <mxGeometry width="50" height="50" relative="1" as="geometry">
            <mxPoint x="430" y="400" as="sourcePoint" />
            <mxPoint x="564" y="495" as="targetPoint" />
          </mxGeometry>
        </mxCell>
        <mxCell id="dOzwPy3t-3OWGlCS2lwr-33" value="" style="endArrow=classic;html=1;" edge="1" parent="1" source="dOzwPy3t-3OWGlCS2lwr-35" target="dOzwPy3t-3OWGlCS2lwr-30">
          <mxGeometry width="50" height="50" relative="1" as="geometry">
            <mxPoint x="524" y="515" as="sourcePoint" />
            <mxPoint x="470" y="480" as="targetPoint" />
          </mxGeometry>
        </mxCell>
        <mxCell id="dOzwPy3t-3OWGlCS2lwr-34" value="In-game diagram" style="text;html=1;strokeColor=none;fillColor=none;align=center;verticalAlign=middle;whiteSpace=wrap;rounded=0;shadow=0;" vertex="1" parent="1">
          <mxGeometry x="261" y="535" width="46" height="20" as="geometry" />
        </mxCell>
        <mxCell id="dOzwPy3t-3OWGlCS2lwr-35" value="Game&lt;br&gt;options" style="ellipse;whiteSpace=wrap;html=1;shadow=0;" vertex="1" parent="1">
          <mxGeometry x="524" y="495" width="80" height="40" as="geometry" />
        </mxCell>
        <mxCell id="dOzwPy3t-3OWGlCS2lwr-36" value="Settings" style="ellipse;whiteSpace=wrap;html=1;shadow=0;" vertex="1" parent="1">
          <mxGeometry x="560" y="140" width="80" height="40" as="geometry" />
        </mxCell>
        <mxCell id="dOzwPy3t-3OWGlCS2lwr-37" value="[Game interrupted &lt;br&gt;/ finished]" style="endArrow=classic;html=1;exitX=0;exitY=0.5;exitDx=0;exitDy=0;" edge="1" parent="1" source="dOzwPy3t-3OWGlCS2lwr-30" target="dOzwPy3t-3OWGlCS2lwr-2">
          <mxGeometry x="-0.2759" width="50" height="50" relative="1" as="geometry">
            <mxPoint x="290" y="320" as="sourcePoint" />
            <mxPoint x="340" y="270" as="targetPoint" />
            <Array as="points">
              <mxPoint x="180" y="515" />
              <mxPoint x="180" y="100" />
            </Array>
            <mxPoint as="offset" />
          </mxGeometry>
        </mxCell>
      </root>
    </mxGraphModel>
  </diagram>
</mxfile>
